<mxfile host="" modified="2021-02-09T17:58:05.667Z" agent="5.0 (Macintosh; Intel Mac OS X 10_16_0) AppleWebKit/537.36 (KHTML, like Gecko) Chrome/84.0.4147.105 Safari/537.36" etag="C77jIwxXl8zwpLs632dS" version="13.7.9" type="embed"><diagram id="C5RBs43oDa-KdzZeNtuy" name="Page-1"><mxGraphModel dx="1591" dy="654" grid="1" gridSize="10" guides="1" tooltips="1" connect="1" arrows="1" fold="1" page="1" pageScale="1" pageWidth="827" pageHeight="1169" background="none" math="0" shadow="0"><root><mxCell id="WIyWlLk6GJQsqaUBKTNV-0"/><mxCell id="WIyWlLk6GJQsqaUBKTNV-1" parent="WIyWlLk6GJQsqaUBKTNV-0"/><mxCell id="qwiaXzNyyRg8c2Ssjbc4-4" value="" style="edgeStyle=orthogonalEdgeStyle;orthogonalLoop=1;jettySize=auto;html=1;" parent="WIyWlLk6GJQsqaUBKTNV-1" source="qwiaXzNyyRg8c2Ssjbc4-0" target="qwiaXzNyyRg8c2Ssjbc4-3" edge="1"><mxGeometry relative="1" as="geometry"/></mxCell><mxCell id="qwiaXzNyyRg8c2Ssjbc4-24" value="" style="edgeStyle=orthogonalEdgeStyle;orthogonalLoop=1;jettySize=auto;html=1;" parent="WIyWlLk6GJQsqaUBKTNV-1" source="qwiaXzNyyRg8c2Ssjbc4-0" target="qwiaXzNyyRg8c2Ssjbc4-23" edge="1"><mxGeometry relative="1" as="geometry"/></mxCell><mxCell id="qwiaXzNyyRg8c2Ssjbc4-0" value="API" style="whiteSpace=wrap;html=1;fillColor=#ffe6cc;strokeColor=#d79b00;rounded=1;" parent="WIyWlLk6GJQsqaUBKTNV-1" vertex="1"><mxGeometry x="360" y="30" width="120" height="60" as="geometry"/></mxCell><mxCell id="qwiaXzNyyRg8c2Ssjbc4-6" value="" style="edgeStyle=orthogonalEdgeStyle;orthogonalLoop=1;jettySize=auto;html=1;" parent="WIyWlLk6GJQsqaUBKTNV-1" source="qwiaXzNyyRg8c2Ssjbc4-3" target="qwiaXzNyyRg8c2Ssjbc4-5" edge="1"><mxGeometry relative="1" as="geometry"/></mxCell><mxCell id="qwiaXzNyyRg8c2Ssjbc4-8" value="" style="edgeStyle=orthogonalEdgeStyle;orthogonalLoop=1;jettySize=auto;html=1;" parent="WIyWlLk6GJQsqaUBKTNV-1" source="qwiaXzNyyRg8c2Ssjbc4-3" target="qwiaXzNyyRg8c2Ssjbc4-7" edge="1"><mxGeometry relative="1" as="geometry"/></mxCell><mxCell id="qwiaXzNyyRg8c2Ssjbc4-10" value="" style="edgeStyle=orthogonalEdgeStyle;orthogonalLoop=1;jettySize=auto;html=1;" parent="WIyWlLk6GJQsqaUBKTNV-1" source="qwiaXzNyyRg8c2Ssjbc4-3" target="qwiaXzNyyRg8c2Ssjbc4-9" edge="1"><mxGeometry relative="1" as="geometry"/></mxCell><mxCell id="kA6xWOmfYJ0jVYO5Uvoe-8" style="edgeStyle=orthogonalEdgeStyle;rounded=0;orthogonalLoop=1;jettySize=auto;html=1;entryX=1;entryY=0.5;entryDx=0;entryDy=0;" parent="WIyWlLk6GJQsqaUBKTNV-1" source="qwiaXzNyyRg8c2Ssjbc4-3" target="kA6xWOmfYJ0jVYO5Uvoe-4" edge="1"><mxGeometry relative="1" as="geometry"><mxPoint x="-200" y="170" as="targetPoint"/></mxGeometry></mxCell><mxCell id="qwiaXzNyyRg8c2Ssjbc4-3" value="&lt;b&gt;user&lt;/b&gt;" style="rhombus;whiteSpace=wrap;html=1;strokeColor=#6c8ebf;fillColor=#dae8fc;shadow=0;rounded=1;" parent="WIyWlLk6GJQsqaUBKTNV-1" vertex="1"><mxGeometry x="380" y="160" width="80" height="80" as="geometry"/></mxCell><mxCell id="qwiaXzNyyRg8c2Ssjbc4-12" value="" style="edgeStyle=orthogonalEdgeStyle;orthogonalLoop=1;jettySize=auto;html=1;" parent="WIyWlLk6GJQsqaUBKTNV-1" source="qwiaXzNyyRg8c2Ssjbc4-5" target="qwiaXzNyyRg8c2Ssjbc4-11" edge="1"><mxGeometry relative="1" as="geometry"/></mxCell><mxCell id="qwiaXzNyyRg8c2Ssjbc4-5" value="&quot;resource&quot;&lt;br&gt;&lt;b&gt;search&lt;/b&gt;" style="whiteSpace=wrap;html=1;strokeColor=#6c8ebf;fillColor=#dae8fc;rounded=1;" parent="WIyWlLk6GJQsqaUBKTNV-1" vertex="1"><mxGeometry x="-130" y="280" width="120" height="60" as="geometry"/></mxCell><mxCell id="kA6xWOmfYJ0jVYO5Uvoe-1" value="" style="edgeStyle=orthogonalEdgeStyle;rounded=0;orthogonalLoop=1;jettySize=auto;html=1;" parent="WIyWlLk6GJQsqaUBKTNV-1" source="qwiaXzNyyRg8c2Ssjbc4-7" target="kA6xWOmfYJ0jVYO5Uvoe-0" edge="1"><mxGeometry relative="1" as="geometry"/></mxCell><mxCell id="qwiaXzNyyRg8c2Ssjbc4-7" value="&quot;resource&quot;&lt;br&gt;&lt;b&gt;login&lt;/b&gt;" style="whiteSpace=wrap;html=1;strokeColor=#6c8ebf;rounded=1;fillColor=#DAE8FC;" parent="WIyWlLk6GJQsqaUBKTNV-1" vertex="1"><mxGeometry x="360" y="280" width="120" height="60" as="geometry"/></mxCell><mxCell id="qwiaXzNyyRg8c2Ssjbc4-18" value="" style="edgeStyle=orthogonalEdgeStyle;orthogonalLoop=1;jettySize=auto;html=1;" parent="WIyWlLk6GJQsqaUBKTNV-1" source="qwiaXzNyyRg8c2Ssjbc4-9" target="qwiaXzNyyRg8c2Ssjbc4-17" edge="1"><mxGeometry relative="1" as="geometry"/></mxCell><mxCell id="qwiaXzNyyRg8c2Ssjbc4-9" value="&quot;resource&quot;&lt;br&gt;&lt;b&gt;post&lt;/b&gt;" style="whiteSpace=wrap;html=1;strokeColor=#6c8ebf;fillColor=#dae8fc;rounded=1;" parent="WIyWlLk6GJQsqaUBKTNV-1" vertex="1"><mxGeometry x="880" y="280" width="120" height="60" as="geometry"/></mxCell><mxCell id="qwiaXzNyyRg8c2Ssjbc4-11" value="GET(search, offset, rowCount)&lt;br&gt;Search for a user." style="shape=hexagon;perimeter=hexagonPerimeter2;whiteSpace=wrap;html=1;fixedSize=1;strokeColor=#6c8ebf;fillColor=#dae8fc;rounded=1;" parent="WIyWlLk6GJQsqaUBKTNV-1" vertex="1"><mxGeometry x="-140" y="400" width="140" height="80" as="geometry"/></mxCell><mxCell id="qwiaXzNyyRg8c2Ssjbc4-13" value="&lt;div&gt;POST(&lt;span&gt;hash)&lt;/span&gt;&lt;/div&gt;&lt;div&gt;Login a user.&lt;/div&gt;" style="shape=hexagon;perimeter=hexagonPerimeter2;whiteSpace=wrap;html=1;fixedSize=1;strokeColor=#6c8ebf;fillColor=#dae8fc;rounded=1;" parent="WIyWlLk6GJQsqaUBKTNV-1" vertex="1"><mxGeometry x="140" y="520" width="120" height="80" as="geometry"/></mxCell><mxCell id="qwiaXzNyyRg8c2Ssjbc4-15" value="&lt;div&gt;PUT(hash, name, email)&lt;/div&gt;&lt;div&gt;Register a user.&lt;/div&gt;" style="shape=hexagon;perimeter=hexagonPerimeter2;whiteSpace=wrap;html=1;fixedSize=1;strokeColor=#6c8ebf;fillColor=#dae8fc;rounded=1;" parent="WIyWlLk6GJQsqaUBKTNV-1" vertex="1"><mxGeometry x="580" y="520" width="120" height="80" as="geometry"/></mxCell><mxCell id="qwiaXzNyyRg8c2Ssjbc4-17" value="&lt;div&gt;PUT(caption, tag, image)&lt;/div&gt;&lt;div&gt;Post an image.&lt;/div&gt;" style="shape=hexagon;perimeter=hexagonPerimeter2;whiteSpace=wrap;html=1;fixedSize=1;strokeColor=#6c8ebf;fillColor=#dae8fc;rounded=1;" parent="WIyWlLk6GJQsqaUBKTNV-1" vertex="1"><mxGeometry x="860" y="400" width="160" height="80" as="geometry"/></mxCell><mxCell id="kA6xWOmfYJ0jVYO5Uvoe-12" value="" style="edgeStyle=orthogonalEdgeStyle;rounded=0;orthogonalLoop=1;jettySize=auto;html=1;" parent="WIyWlLk6GJQsqaUBKTNV-1" source="qwiaXzNyyRg8c2Ssjbc4-23" target="kA6xWOmfYJ0jVYO5Uvoe-11" edge="1"><mxGeometry relative="1" as="geometry"/></mxCell><mxCell id="qwiaXzNyyRg8c2Ssjbc4-23" value="&lt;b&gt;email&lt;/b&gt;" style="rhombus;whiteSpace=wrap;html=1;strokeColor=#b85450;rounded=1;fillColor=#FF7E79;" parent="WIyWlLk6GJQsqaUBKTNV-1" vertex="1"><mxGeometry x="1310" y="160" width="80" height="80" as="geometry"/></mxCell><mxCell id="qwiaXzNyyRg8c2Ssjbc4-28" value="" style="edgeStyle=orthogonalEdgeStyle;orthogonalLoop=1;jettySize=auto;html=1;" parent="WIyWlLk6GJQsqaUBKTNV-1" source="qwiaXzNyyRg8c2Ssjbc4-25" target="qwiaXzNyyRg8c2Ssjbc4-27" edge="1"><mxGeometry relative="1" as="geometry"/></mxCell><mxCell id="qwiaXzNyyRg8c2Ssjbc4-25" value="&quot;resource&quot;&lt;br&gt;&lt;b&gt;taken&lt;/b&gt;" style="whiteSpace=wrap;html=1;strokeColor=#b85450;rounded=1;fillColor=#FF7E79;" parent="WIyWlLk6GJQsqaUBKTNV-1" vertex="1"><mxGeometry x="1290" y="400" width="120" height="60" as="geometry"/></mxCell><mxCell id="qwiaXzNyyRg8c2Ssjbc4-27" value="&lt;div&gt;GET(email)&lt;/div&gt;&lt;div&gt;Check if an email is taken.&lt;/div&gt;" style="shape=hexagon;perimeter=hexagonPerimeter2;whiteSpace=wrap;html=1;fixedSize=1;strokeColor=#b85450;rounded=1;fillColor=#FF7E79;" parent="WIyWlLk6GJQsqaUBKTNV-1" vertex="1"><mxGeometry x="1290" y="520" width="120" height="80" as="geometry"/></mxCell><mxCell id="kA6xWOmfYJ0jVYO5Uvoe-10" value="" style="edgeStyle=orthogonalEdgeStyle;rounded=0;orthogonalLoop=1;jettySize=auto;html=1;" parent="WIyWlLk6GJQsqaUBKTNV-1" source="qwiaXzNyyRg8c2Ssjbc4-29" target="qwiaXzNyyRg8c2Ssjbc4-31" edge="1"><mxGeometry relative="1" as="geometry"/></mxCell><mxCell id="qwiaXzNyyRg8c2Ssjbc4-29" value="&quot;resource&quot;&lt;br&gt;&lt;b&gt;follow&lt;/b&gt;" style="whiteSpace=wrap;html=1;strokeColor=#9673a6;fillColor=#e1d5e7;rounded=1;" parent="WIyWlLk6GJQsqaUBKTNV-1" vertex="1"><mxGeometry x="-413" y="280" width="120" height="60" as="geometry"/></mxCell><mxCell id="qwiaXzNyyRg8c2Ssjbc4-31" value="&lt;div&gt;POST()&lt;/div&gt;&lt;div&gt;Follow a user.&lt;br&gt;&lt;/div&gt;" style="shape=hexagon;perimeter=hexagonPerimeter2;whiteSpace=wrap;html=1;fixedSize=1;strokeColor=#9673a6;fillColor=#e1d5e7;rounded=1;" parent="WIyWlLk6GJQsqaUBKTNV-1" vertex="1"><mxGeometry x="-413" y="400" width="120" height="80" as="geometry"/></mxCell><mxCell id="kA6xWOmfYJ0jVYO5Uvoe-2" style="edgeStyle=orthogonalEdgeStyle;rounded=0;orthogonalLoop=1;jettySize=auto;html=1;entryX=0.5;entryY=0;entryDx=0;entryDy=0;" parent="WIyWlLk6GJQsqaUBKTNV-1" source="kA6xWOmfYJ0jVYO5Uvoe-0" target="qwiaXzNyyRg8c2Ssjbc4-13" edge="1"><mxGeometry relative="1" as="geometry"/></mxCell><mxCell id="kA6xWOmfYJ0jVYO5Uvoe-3" style="edgeStyle=orthogonalEdgeStyle;rounded=0;orthogonalLoop=1;jettySize=auto;html=1;entryX=0.5;entryY=0;entryDx=0;entryDy=0;" parent="WIyWlLk6GJQsqaUBKTNV-1" source="kA6xWOmfYJ0jVYO5Uvoe-0" target="qwiaXzNyyRg8c2Ssjbc4-15" edge="1"><mxGeometry relative="1" as="geometry"/></mxCell><mxCell id="kA6xWOmfYJ0jVYO5Uvoe-0" value="&lt;b&gt;&amp;lt;username&amp;gt;&lt;/b&gt;" style="shape=trapezoid;perimeter=trapezoidPerimeter;whiteSpace=wrap;html=1;fixedSize=1;rounded=1;strokeColor=#6c8ebf;fillColor=#dae8fc;" parent="WIyWlLk6GJQsqaUBKTNV-1" vertex="1"><mxGeometry x="360" y="400" width="120" height="60" as="geometry"/></mxCell><mxCell id="kA6xWOmfYJ0jVYO5Uvoe-9" value="" style="edgeStyle=orthogonalEdgeStyle;rounded=0;orthogonalLoop=1;jettySize=auto;html=1;" parent="WIyWlLk6GJQsqaUBKTNV-1" source="kA6xWOmfYJ0jVYO5Uvoe-4" target="qwiaXzNyyRg8c2Ssjbc4-29" edge="1"><mxGeometry relative="1" as="geometry"/></mxCell><mxCell id="kA6xWOmfYJ0jVYO5Uvoe-4" value="&lt;b&gt;&amp;lt;id&amp;gt;&lt;/b&gt;" style="shape=trapezoid;perimeter=trapezoidPerimeter;whiteSpace=wrap;html=1;fixedSize=1;rounded=1;strokeColor=#9673a6;fillColor=#e1d5e7;" parent="WIyWlLk6GJQsqaUBKTNV-1" vertex="1"><mxGeometry x="-413" y="170" width="120" height="60" as="geometry"/></mxCell><mxCell id="kA6xWOmfYJ0jVYO5Uvoe-13" value="" style="edgeStyle=orthogonalEdgeStyle;rounded=0;orthogonalLoop=1;jettySize=auto;html=1;" parent="WIyWlLk6GJQsqaUBKTNV-1" source="kA6xWOmfYJ0jVYO5Uvoe-11" target="qwiaXzNyyRg8c2Ssjbc4-25" edge="1"><mxGeometry relative="1" as="geometry"/></mxCell><mxCell id="kA6xWOmfYJ0jVYO5Uvoe-11" value="&amp;lt;email&amp;gt;" style="shape=trapezoid;perimeter=trapezoidPerimeter;whiteSpace=wrap;html=1;fixedSize=1;rounded=1;strokeColor=#b85450;fillColor=#FF7E79;" parent="WIyWlLk6GJQsqaUBKTNV-1" vertex="1"><mxGeometry x="1290" y="280" width="120" height="60" as="geometry"/></mxCell></root></mxGraphModel></diagram></mxfile>